<?xml version="1.0" encoding="utf-8"?>
<!-- Generator: Adobe Illustrator 24.3.0, SVG Export Plug-In . SVG Version: 6.00 Build 0)  -->
<svg version="1.1" id="Layer_1" xmlns="http://www.w3.org/2000/svg" xmlns:xlink="http://www.w3.org/1999/xlink" x="0px" y="0px"
	 viewBox="0 0 1200 790" style="enable-background:new 0 0 1200 790;" xml:space="preserve">
<path d="M1090.4,83.5H109.6c-5.3,0-9.6,4.3-9.6,9.6V697c0,5.3,4.3,9.6,9.6,9.6h980.9c5.3,0,9.6-4.3,9.6-9.6V93
	C1100,87.8,1095.7,83.5,1090.4,83.5z M934.1,492.4c-0.1,0.3-1.9,6.3-7.9,12.4c-5.5,5.6-15.7,12.3-32.9,12.3c-3,0-6.1-0.2-9.3-0.6
	c-29.2-3.6-55.4-29.2-72.3-50.2c-20.8-25.8-39-59-49.9-91.2c0-0.1-0.2-0.2-0.3-0.2c-0.1,0-0.3,0.1-0.3,0.2L681,516.7
	c-0.2,0.3-0.5,0.5-0.9,0.5c0,0,0,0,0,0c-0.4,0-0.7-0.2-0.9-0.6L608,375.9c0,0,0,0,0,0c-0.1-0.2-0.5-0.2-0.6,0l-0.4,0.9
	c-9.7,20.8-35.4,76-79.8,106.4c-40.4,27.7-77.4,34-197.8,34c-0.6,0-1-0.4-1-1V276.7c0-0.5,0.4-1,1-1c0.9,0,9-0.3,21-0.3
	c35.3,0,83.1,2,110.6,11.7c24.5,8.6,43.4,23.2,54.7,42.3c7.6,12.7,16,31.6,13,49.3c-0.1,0.4-0.4,0.8-0.8,0.8c-0.4,0.1-0.9-0.2-1-0.5
	c-0.3-0.7-34.3-65.9-116.1-68.8c-18-0.6-30.9-0.8-38.6-0.8c-4.8,0-7.9,0.1-9.4,0.1c-0.2,0-0.3,0.2-0.3,0.3l0,172.7
	c0,0.2,0.1,0.3,0.3,0.3c12.9,0.3,114,4.8,155.2-35.1c29.5-28.5,49.3-65.4,62.7-96.3c13.2-30.2,22.7-53.5,22.8-53.7
	c0.1-0.4,0.5-0.6,0.9-0.7c0.4,0,0.8,0.2,1,0.5L679.8,441c0.1,0.1,0.2,0.2,0.3,0.2c0,0,0,0,0,0c0.1,0,0.2-0.1,0.3-0.2l86.9-143.5
	c0.2-0.3,0.6-0.5,1-0.5c0.4,0,0.7,0.3,0.8,0.7c0.3,0.9,30.9,89.8,49.1,119.6c20.9,34.1,55.6,74.7,102.5,74.7c4.1,0,8.2-0.3,12.3-0.9
	c0.3,0,0.7,0.1,0.9,0.3C934.1,491.7,934.2,492.1,934.1,492.4z"/>
</svg>
